<?xml version="1.0" encoding="UTF-8" standalone="no"?><!-- Created with Inkscape (http://www.inkscape.org/) --><svg xmlns:dc="http://purl.org/dc/elements/1.1/" xmlns:cc="http://creativecommons.org/ns#" xmlns:rdf="http://www.w3.org/1999/02/22-rdf-syntax-ns#" xmlns:svg="http://www.w3.org/2000/svg" xmlns="http://www.w3.org/2000/svg" xmlns:sodipodi="http://sodipodi.sourceforge.net/DTD/sodipodi-0.dtd" xmlns:inkscape="http://www.inkscape.org/namespaces/inkscape" version="1.1" id="svg2" xml:space="preserve" viewBox="0 0 131.58667 134" sodipodi:docname="sircles-pittogramma.svg" inkscape:version="0.92.4 (5da689c313, 2019-01-14)"><defs id="defs6"><style>.cls-1,.cls-2,.cls-3 {mix-blend-mode: multiply;}.cls-1 {fill: url(#linearGradient1);}.cls-2 {fill: url(#linearGradient2);}.cls-3 {fill: url(#linearGradient3);}</style><linearGradient id="linearGradient1" x1="0" y1="0" x2="1" y2="0" gradientUnits="userSpaceOnUse" gradientTransform="matrix(95.229912,0,0,95.229912,1.0896503,50.194702)" spreadMethod="pad"><stop style="stop-opacity:1;stop-color:#f3a94c" offset="0" id="stop32" /><stop style="stop-opacity:1;stop-color:#ec6f23" offset="0.5" id="stop34" /><stop style="stop-opacity:1;stop-color:#f04923" offset="1" id="stop36" /></linearGradient><linearGradient id="linearGradient2" x1="0" y1="0" x2="1" y2="0" gradientUnits="userSpaceOnUse" gradientTransform="matrix(-47.634781,82.505859,-82.505859,-47.634781,73.81575,10.683515)" spreadMethod="pad"><stop style="stop-opacity:1;stop-color:#005dac" offset="0" id="stop66" /><stop style="stop-opacity:1;stop-color:#00aeef" offset="0.5" id="stop68" /><stop style="stop-opacity:1;stop-color:#74d1f6" offset="1" id="stop70" /></linearGradient><linearGradient id="linearGradient3" x1="0" y1="0" x2="1" y2="0" gradientUnits="userSpaceOnUse" gradientTransform="matrix(95.339401,0.0031223,-0.0031223,95.339401,0.9985485,48.579845)" spreadMethod="pad"><stop style="stop-opacity:1;stop-color:#d15b27" offset="0" id="stop100" /><stop style="stop-opacity:1;stop-color:#ec6f23" offset="0.5" id="stop102" /><stop style="stop-opacity:1;stop-color:#f2944d" offset="1" id="stop104" /></linearGradient></defs><g id="g10" transform="matrix(1.3333333,0,0,-1.3333333,0,134)"><g id="g42"><path class="cls-1" d="m 96.285,50.126 v 0.812 c 0,0.534 0,1.336 -0.109,2.376 -0.199,3.001 -0.73,5.97 -1.584,8.854 -2.993,10.333 -9.754,19.168 -18.945,24.758 -5.954,3.616 -12.712,5.699 -19.668,6.06 h -1.347 -1.346 -1.457 -0.732 l -0.634,-0.059 -1.386,-0.119 c -0.466,0 -0.921,-0.118 -1.387,-0.178 -0.931,-0.099 -1.852,-0.297 -2.773,-0.465 -1.855,-0.384 -3.681,-0.894 -5.466,-1.526 -0.912,-0.287 -1.783,-0.683 -2.674,-0.99 L 35.47,89.055 34.816,88.758 34.172,88.421 C 23.535,83.01 15.621,73.427 12.316,61.96 l -0.377,-1.436 c -0.118,-0.476 -0.207,-0.991 -0.326,-1.446 l -0.159,-0.723 -0.119,-0.733 c -0.079,-0.485 -0.178,-0.99 -0.237,-1.466 l -0.179,-1.475 c 0,-0.248 -0.049,-0.486 -0.069,-0.713 l -0.049,-0.703 -0.06,-0.703 v -0.387 -0.416 -1.545 c 0.015,-1.987 0.154,-3.971 0.416,-5.941 0.06,-0.496 0.159,-0.991 0.238,-1.466 l 0.119,-0.733 0.158,-0.723 c 0.109,-0.485 0.198,-0.99 0.317,-1.455 L 12.366,38.46 C 15.665,26.984 23.58,17.394 34.222,11.979 l 0.644,-0.337 0.653,-0.297 1.308,-0.595 C 37.718,10.403 38.589,10.008 39.5,9.76 41.289,9.127 43.119,8.618 44.976,8.234 45.898,8.066 46.838,7.868 47.73,7.77 48.185,7.71 48.611,7.641 49.097,7.591 l 1.465,-0.118 0.663,-0.05 h 0.694 1.386 1.377 c 0.455,0 0.911,0 1.366,0.05 6.899,0.321 13.612,2.335 19.55,5.862 9.189,5.59 15.946,14.425 18.934,24.758 0.854,2.884 1.386,5.853 1.585,8.853 0.099,0.991 0.089,1.832 0.109,2.377 z m 0,0 v -0.813 c 0,-0.535 0,-1.337 -0.099,-2.376 C 95.999,43.925 95.515,40.94 94.74,38.024 L 94.354,36.578 93.869,35.083 C 93.72,34.567 93.512,34.092 93.314,33.527 93.116,32.963 92.928,32.458 92.681,31.923 91.71,29.573 90.548,27.308 89.204,25.149 87.668,22.69 85.918,20.37 83.975,18.217 79.4,13.145 73.787,9.115 67.517,6.402 63.975,4.861 60.256,3.764 56.445,3.135 55.95,3.035 55.454,2.986 54.959,2.917 L 53.454,2.729 51.929,2.609 51.156,2.551 h -0.802 -1.476 -1.584 c -1.09,0 -2.129,0.108 -3.189,0.187 -2.147,0.205 -4.278,0.556 -6.378,1.05 -1.069,0.228 -2.119,0.555 -3.189,0.852 -0.524,0.169 -1.049,0.356 -1.574,0.535 L 32.172,5.452 31.39,5.759 C 29.279,6.576 27.23,7.546 25.259,8.66 l -1.485,0.872 -1.446,0.991 c -0.485,0.306 -0.99,0.643 -1.426,0.99 -0.436,0.346 -0.99,0.674 -1.396,0.99 -20.82,16.226 -24.544,46.256 -8.318,67.076 2.419,3.104 5.213,5.898 8.318,8.317 0.445,0.367 0.94,0.693 1.406,0.99 0.465,0.298 0.94,0.684 1.426,0.991 l 1.446,0.99 1.485,0.872 c 1.969,1.12 4.018,2.093 6.13,2.911 l 0.783,0.307 0.792,0.277 c 0.525,0.179 1.05,0.367 1.575,0.535 1.069,0.297 2.119,0.624 3.188,0.852 2.104,0.491 4.238,0.839 6.388,1.04 1.059,0.079 2.109,0.178 3.159,0.178 h 1.565 1.555 0.831 l 0.733,-0.06 1.456,-0.118 1.535,-0.188 c 0.515,-0.07 0.991,-0.119 1.516,-0.219 3.811,-0.631 7.53,-1.732 11.071,-3.277 6.271,-2.716 11.885,-6.748 16.459,-11.825 1.944,-2.152 3.693,-4.472 5.229,-6.932 1.345,-2.157 2.507,-4.424 3.476,-6.774 0.248,-0.534 0.436,-1.079 0.634,-1.604 0.198,-0.525 0.396,-0.99 0.554,-1.555 l 0.486,-1.495 0.386,-1.446 c 0.773,-2.916 1.258,-5.902 1.446,-8.913 0.099,-0.99 0.079,-1.832 0.099,-2.377 0.02,-0.544 -0.03,-0.93 -0.03,-0.93" /></g><g id="g76"><path class="cls-2" d="M 26.22,93.125 25.527,92.699 C 25.071,92.412 24.378,92.026 23.546,91.422 21.047,89.748 18.742,87.801 16.673,85.618 9.267,77.863 5.029,67.62 4.789,56.899 4.635,49.935 6.21,43.041 9.375,36.836 9.563,36.42 9.79,36.033 10.009,35.647 l 0.653,-1.179 0.763,-1.237 0.386,-0.624 0.366,-0.525 0.793,-1.149 c 0.267,-0.376 0.564,-0.743 0.851,-1.119 0.555,-0.753 1.189,-1.456 1.793,-2.169 1.261,-1.411 2.618,-2.735 4.06,-3.961 0.703,-0.644 1.486,-1.199 2.228,-1.803 l 1.169,-0.841 0.584,-0.416 0.614,-0.387 c 9.976,-6.507 22.201,-8.594 33.77,-5.763 l 1.436,0.386 c 0.475,0.139 0.99,0.297 1.416,0.446 l 0.713,0.227 0.693,0.258 c 0.466,0.178 0.931,0.337 1.387,0.525 l 1.367,0.584 c 0.237,0.089 0.445,0.198 0.653,0.297 l 0.634,0.307 0.634,0.297 0.346,0.179 0.366,0.198 1.357,0.733 c 1.719,1.004 3.372,2.115 4.952,3.327 0.396,0.297 0.763,0.624 1.149,0.941 l 0.574,0.475 0.545,0.505 c 0.366,0.337 0.743,0.654 1.099,0.99 l 1.05,1.05 C 86.722,34.8 91.084,46.47 90.452,58.414 v 0.723 l -0.069,0.713 -0.139,1.436 c -0.139,0.99 -0.237,1.902 -0.445,2.833 -0.346,1.865 -0.82,3.705 -1.417,5.506 -0.317,0.881 -0.614,1.792 -0.99,2.614 -0.178,0.426 -0.327,0.832 -0.525,1.268 l -0.634,1.327 -0.287,0.604 -0.326,0.614 -0.654,1.218 -0.703,1.178 c -0.238,0.397 -0.466,0.793 -0.733,1.159 -3.795,5.844 -8.981,10.656 -15.093,14.003 -5.259,2.876 -11.06,4.623 -17.033,5.13 -4.65,0.401 -9.334,0.033 -13.865,-1.089 -2.923,-0.701 -5.759,-1.724 -8.457,-3.05 -0.99,-0.426 -1.634,-0.842 -2.109,-1.09 z m 0,0 0.713,0.396 c 0.476,0.248 1.159,0.664 2.1,1.1 2.697,1.341 5.52,2.412 8.427,3.198 l 1.446,0.387 1.545,0.336 c 0.525,0.129 1.069,0.208 1.624,0.297 0.555,0.089 1.119,0.198 1.703,0.258 2.521,0.335 5.065,0.461 7.606,0.376 2.904,-0.096 5.794,-0.447 8.635,-1.05 6.682,-1.426 12.977,-4.274 18.46,-8.348 3.104,-2.287 5.915,-4.948 8.369,-7.923 0.326,-0.376 0.623,-0.782 0.93,-1.178 l 0.911,-1.208 0.862,-1.258 0.436,-0.634 0.416,-0.683 0.772,-1.258 c 0.258,-0.426 0.515,-0.921 0.773,-1.387 0.534,-0.99 0.99,-1.891 1.436,-2.852 0.899,-1.962 1.663,-3.983 2.287,-6.05 0.347,-1.04 0.584,-2.12 0.862,-3.189 0.119,-0.535 0.217,-1.09 0.327,-1.634 l 0.158,-0.822 0.119,-0.832 c 0.348,-2.238 0.533,-4.499 0.554,-6.764 V 50.68 l -0.089,-1.723 c 0,-0.575 -0.079,-1.149 -0.148,-1.733 C 97.384,46.64 97.355,46.065 97.256,45.491 93.619,19.347 69.477,1.102 43.334,4.738 39.436,5.28 35.621,6.302 31.974,7.779 31.429,7.987 30.904,8.245 30.37,8.473 29.835,8.7 29.31,8.948 28.795,9.215 L 27.25,9.998 25.755,10.85 c -1.955,1.147 -3.822,2.438 -5.586,3.862 l -0.653,0.524 -0.634,0.545 c -0.416,0.367 -0.842,0.723 -1.248,1.099 -0.792,0.783 -1.604,1.525 -2.327,2.337 -1.479,1.576 -2.849,3.25 -4.1,5.012 -0.594,0.881 -1.209,1.743 -1.743,2.644 -0.268,0.445 -0.555,0.891 -0.802,1.346 L 7.919,29.586 7.523,30.319 7.206,30.982 6.582,32.3 5.978,33.726 c -0.198,0.475 -0.406,0.99 -0.565,1.416 -1.357,3.618 -2.262,7.39 -2.693,11.23 -0.793,6.785 -0.118,13.662 1.981,20.163 0.897,2.766 2.037,5.447 3.406,8.012 1.2,2.243 2.585,4.383 4.139,6.397 0.337,0.476 0.724,0.911 1.07,1.357 0.347,0.446 0.703,0.871 1.07,1.258 l 1.059,1.168 1.06,1.06 c 2.119,2.12 4.441,4.027 6.932,5.694 0.852,0.604 1.555,0.99 1.981,1.268 z" /></g><g id="g110"><path class="cls-3" d="M 24.824,7.265 25.537,6.878 C 26.012,6.631 26.695,6.215 27.646,5.789 30.344,4.462 33.18,3.44 36.103,2.738 46.538,0.183 57.55,1.628 66.972,6.789 c 6.108,3.348 11.291,8.159 15.082,14.003 0.268,0.377 0.485,0.763 0.713,1.139 l 0.693,1.158 0.694,1.278 0.346,0.644 0.268,0.574 0.594,1.258 c 0.198,0.426 0.357,0.862 0.545,1.287 0.376,0.852 0.663,1.753 0.99,2.635 0.597,1.801 1.07,3.64 1.416,5.506 0.198,0.931 0.297,1.881 0.446,2.832 0.059,0.475 0.089,0.99 0.138,1.436 l 0.07,0.713 v 0.723 C 89.6,53.891 85.261,65.536 76.984,74.131 l -1.05,1.049 c -0.356,0.347 -0.733,0.664 -1.089,0.991 l -0.545,0.505 -0.575,0.475 c -0.386,0.307 -0.752,0.644 -1.148,0.941 l -1.188,0.891 c -0.199,0.159 -0.396,0.288 -0.585,0.416 l -0.574,0.396 -0.574,0.396 -0.327,0.208 -0.357,0.218 -1.317,0.803 c -1.726,0.981 -3.513,1.854 -5.348,2.614 -0.455,0.198 -0.931,0.346 -1.386,0.525 l -0.694,0.257 -0.712,0.228 c -0.476,0.148 -0.941,0.317 -1.416,0.456 l -1.436,0.386 C 45.076,88.766 32.814,86.707 22.804,80.201 L 22.189,79.815 21.605,79.399 20.436,78.567 C 19.684,77.973 18.912,77.409 18.208,76.765 16.767,75.538 15.41,74.214 14.148,72.804 13.544,72.091 12.9,71.378 12.375,70.655 12.098,70.288 11.821,69.952 11.543,69.566 L 10.712,68.347 10.326,67.793 9.959,67.198 9.246,65.97 8.582,64.772 C 8.365,64.366 8.127,63.97 7.939,63.564 4.763,57.371 3.171,50.488 3.304,43.53 3.555,32.8 7.816,22.554 15.247,14.811 17.316,12.628 19.621,10.681 22.12,9.007 22.962,8.403 23.665,8.017 24.1,7.73 Z m 0,0 -0.694,0.426 c -0.455,0.287 -1.158,0.672 -1.98,1.267 -2.491,1.667 -4.813,3.574 -6.932,5.694 l -1.06,1.06 -1.06,1.168 c -0.366,0.387 -0.713,0.822 -1.069,1.258 -0.357,0.436 -0.733,0.871 -1.07,1.347 -1.55,2.015 -2.931,4.155 -4.13,6.397 -1.409,2.561 -2.589,5.243 -3.525,8.012 -2.102,6.51 -2.778,13.398 -1.981,20.193 0.436,3.837 1.344,7.605 2.704,11.22 0.158,0.475 0.366,0.931 0.554,1.396 l 0.595,1.397 0.663,1.376 0.337,0.694 0.376,0.703 0.703,1.297 c 0.248,0.436 0.545,0.911 0.823,1.367 0.554,0.941 1.158,1.782 1.752,2.674 1.252,1.757 2.622,3.428 4.1,5.001 0.733,0.812 1.545,1.564 2.327,2.337 0.406,0.376 0.832,0.732 1.248,1.099 l 0.634,0.544 0.653,0.516 c 1.767,1.42 3.633,2.712 5.586,3.862 l 1.495,0.851 1.536,0.783 c 0.514,0.267 0.99,0.505 1.574,0.742 0.584,0.238 1.05,0.486 1.604,0.694 24.458,9.926 52.332,-1.853 62.259,-26.31 1.475,-3.635 2.497,-7.438 3.043,-11.323 0.099,-0.574 0.129,-1.158 0.198,-1.733 0.07,-0.574 0.119,-1.148 0.149,-1.732 0.03,-0.585 0.059,-1.149 0.089,-1.724 0.029,-0.574 0,-1.148 0,-1.723 C 96.31,45.83 96.128,43.569 95.78,41.331 L 95.661,40.5 95.503,39.677 C 95.394,39.133 95.295,38.588 95.176,38.044 94.899,36.974 94.661,35.895 94.314,34.855 93.69,32.788 92.926,30.767 92.027,28.804 91.561,27.814 91.125,26.882 90.6,25.971 90.343,25.516 90.105,25.05 89.838,24.605 L 89.026,23.278 88.59,22.575 88.174,21.971 87.352,20.773 86.422,19.534 C 86.104,19.128 85.808,18.712 85.431,18.336 82.975,15.36 80.162,12.699 77.053,10.413 71.566,6.342 65.267,3.498 58.583,2.075 55.742,1.472 52.852,1.12 49.948,1.025 47.407,0.943 44.863,1.072 42.342,1.411 41.758,1.471 41.194,1.58 40.639,1.669 40.084,1.758 39.54,1.837 39.015,1.966 L 37.47,2.303 36.024,2.69 c -2.907,0.787 -5.73,1.858 -8.427,3.198 -0.991,0.435 -1.624,0.851 -2.1,1.099 z" /></g></g></svg>